<svg id="visual" viewBox="0 0 900 600" width="900" height="600" xmlns="http://www.w3.org/2000/svg" xmlns:xlink="http://www.w3.org/1999/xlink" version="1.1"><rect x="0" y="0" width="900" height="600" fill="#ffffff"></rect><path d="M0 439L12.5 444.3C25 449.7 50 460.3 75 459.5C100 458.7 125 446.3 150 435.3C175 424.3 200 414.7 225 412.2C250 409.7 275 414.3 300 418.2C325 422 350 425 375 432.7C400 440.3 425 452.7 450 451C475 449.3 500 433.7 525 431.2C550 428.7 575 439.3 600 444.5C625 449.7 650 449.3 675 446.5C700 443.7 725 438.3 750 433.5C775 428.7 800 424.3 825 426.7C850 429 875 438 887.5 442.5L900 447L900 601L887.5 601C875 601 850 601 825 601C800 601 775 601 750 601C725 601 700 601 675 601C650 601 625 601 600 601C575 601 550 601 525 601C500 601 475 601 450 601C425 601 400 601 375 601C350 601 325 601 300 601C275 601 250 601 225 601C200 601 175 601 150 601C125 601 100 601 75 601C50 601 25 601 12.5 601L0 601Z" fill="#215085"></path><path d="M0 462L12.5 464.7C25 467.3 50 472.7 75 475.7C100 478.7 125 479.3 150 477C175 474.7 200 469.3 225 470.2C250 471 275 478 300 475C325 472 350 459 375 453.5C400 448 425 450 450 451.2C475 452.3 500 452.7 525 458.3C550 464 575 475 600 478.2C625 481.3 650 476.7 675 471.3C700 466 725 460 750 463C775 466 800 478 825 484.3C850 490.7 875 491.3 887.5 491.7L900 492L900 601L887.5 601C875 601 850 601 825 601C800 601 775 601 750 601C725 601 700 601 675 601C650 601 625 601 600 601C575 601 550 601 525 601C500 601 475 601 450 601C425 601 400 601 375 601C350 601 325 601 300 601C275 601 250 601 225 601C200 601 175 601 150 601C125 601 100 601 75 601C50 601 25 601 12.5 601L0 601Z" fill="#2e5b93"></path><path d="M0 476L12.5 480.5C25 485 50 494 75 501.3C100 508.7 125 514.3 150 509.5C175 504.7 200 489.3 225 490.7C250 492 275 510 300 515.7C325 521.3 350 514.7 375 505C400 495.3 425 482.7 450 480.5C475 478.3 500 486.7 525 496C550 505.3 575 515.7 600 517.5C625 519.3 650 512.7 675 506.3C700 500 725 494 750 489.7C775 485.3 800 482.7 825 483.7C850 484.7 875 489.3 887.5 491.7L900 494L900 601L887.5 601C875 601 850 601 825 601C800 601 775 601 750 601C725 601 700 601 675 601C650 601 625 601 600 601C575 601 550 601 525 601C500 601 475 601 450 601C425 601 400 601 375 601C350 601 325 601 300 601C275 601 250 601 225 601C200 601 175 601 150 601C125 601 100 601 75 601C50 601 25 601 12.5 601L0 601Z" fill="#3a67a1"></path><path d="M0 517L12.5 519.7C25 522.3 50 527.7 75 529.5C100 531.3 125 529.7 150 529.2C175 528.7 200 529.3 225 531.7C250 534 275 538 300 535C325 532 350 522 375 516C400 510 425 508 450 514.2C475 520.3 500 534.7 525 540.5C550 546.3 575 543.7 600 540C625 536.3 650 531.7 675 532C700 532.3 725 537.7 750 535C775 532.3 800 521.7 825 515.5C850 509.3 875 507.7 887.5 506.8L900 506L900 601L887.5 601C875 601 850 601 825 601C800 601 775 601 750 601C725 601 700 601 675 601C650 601 625 601 600 601C575 601 550 601 525 601C500 601 475 601 450 601C425 601 400 601 375 601C350 601 325 601 300 601C275 601 250 601 225 601C200 601 175 601 150 601C125 601 100 601 75 601C50 601 25 601 12.5 601L0 601Z" fill="#4672af"></path><path d="M0 541L12.5 544.8C25 548.7 50 556.3 75 561C100 565.7 125 567.3 150 568C175 568.7 200 568.3 225 563.7C250 559 275 550 300 547.7C325 545.3 350 549.7 375 553.7C400 557.7 425 561.3 450 564.7C475 568 500 571 525 570.8C550 570.7 575 567.3 600 564C625 560.7 650 557.3 675 555.2C700 553 725 552 750 555.3C775 558.7 800 566.3 825 565.7C850 565 875 556 887.5 551.5L900 547L900 601L887.5 601C875 601 850 601 825 601C800 601 775 601 750 601C725 601 700 601 675 601C650 601 625 601 600 601C575 601 550 601 525 601C500 601 475 601 450 601C425 601 400 601 375 601C350 601 325 601 300 601C275 601 250 601 225 601C200 601 175 601 150 601C125 601 100 601 75 601C50 601 25 601 12.5 601L0 601Z" fill="#527ebd"></path></svg>