<svg id="visual" viewBox="0 0 960 540" width="960" height="540" xmlns="http://www.w3.org/2000/svg" xmlns:xlink="http://www.w3.org/1999/xlink" version="1.1"><rect x="0" y="0" width="960" height="540" fill="#ffffff"></rect><path d="M0 410L13.3 409.8C26.7 409.7 53.3 409.3 80 403.3C106.7 397.3 133.3 385.7 160 388.3C186.7 391 213.3 408 240 413.7C266.7 419.3 293.3 413.7 320 412C346.7 410.3 373.3 412.7 400 404.8C426.7 397 453.3 379 480 370.3C506.7 361.7 533.3 362.3 560 365.3C586.7 368.3 613.3 373.7 640 380.7C666.7 387.7 693.3 396.3 720 398.2C746.7 400 773.3 395 800 398.8C826.7 402.7 853.3 415.3 880 421.7C906.7 428 933.3 428 946.7 428L960 428L960 541L946.7 541C933.3 541 906.7 541 880 541C853.3 541 826.7 541 800 541C773.3 541 746.7 541 720 541C693.3 541 666.7 541 640 541C613.3 541 586.7 541 560 541C533.3 541 506.7 541 480 541C453.3 541 426.7 541 400 541C373.3 541 346.7 541 320 541C293.3 541 266.7 541 240 541C213.3 541 186.7 541 160 541C133.3 541 106.7 541 80 541C53.3 541 26.7 541 13.3 541L0 541Z" fill="#215085"></path><path d="M0 420L13.3 419.7C26.7 419.3 53.3 418.7 80 419.7C106.7 420.7 133.3 423.3 160 427.8C186.7 432.3 213.3 438.7 240 432.8C266.7 427 293.3 409 320 401.5C346.7 394 373.3 397 400 404.7C426.7 412.3 453.3 424.7 480 423.3C506.7 422 533.3 407 560 404.8C586.7 402.7 613.3 413.3 640 418.7C666.7 424 693.3 424 720 425.8C746.7 427.7 773.3 431.3 800 428.2C826.7 425 853.3 415 880 409.2C906.7 403.3 933.3 401.7 946.7 400.8L960 400L960 541L946.7 541C933.3 541 906.7 541 880 541C853.3 541 826.7 541 800 541C773.3 541 746.7 541 720 541C693.3 541 666.7 541 640 541C613.3 541 586.7 541 560 541C533.3 541 506.7 541 480 541C453.3 541 426.7 541 400 541C373.3 541 346.7 541 320 541C293.3 541 266.7 541 240 541C213.3 541 186.7 541 160 541C133.3 541 106.7 541 80 541C53.3 541 26.7 541 13.3 541L0 541Z" fill="#2e5b93"></path><path d="M0 465L13.3 463.5C26.7 462 53.3 459 80 458.3C106.7 457.7 133.3 459.3 160 461.3C186.7 463.3 213.3 465.7 240 468.2C266.7 470.7 293.3 473.3 320 472.2C346.7 471 373.3 466 400 459.5C426.7 453 453.3 445 480 443.8C506.7 442.7 533.3 448.3 560 447.2C586.7 446 613.3 438 640 434C666.7 430 693.3 430 720 437.3C746.7 444.7 773.3 459.3 800 466C826.7 472.7 853.3 471.3 880 463.8C906.7 456.3 933.3 442.7 946.7 435.8L960 429L960 541L946.7 541C933.3 541 906.7 541 880 541C853.3 541 826.7 541 800 541C773.3 541 746.7 541 720 541C693.3 541 666.7 541 640 541C613.3 541 586.7 541 560 541C533.3 541 506.7 541 480 541C453.3 541 426.7 541 400 541C373.3 541 346.7 541 320 541C293.3 541 266.7 541 240 541C213.3 541 186.7 541 160 541C133.3 541 106.7 541 80 541C53.3 541 26.7 541 13.3 541L0 541Z" fill="#3a67a1"></path><path d="M0 495L13.3 493.2C26.7 491.3 53.3 487.7 80 488C106.7 488.3 133.3 492.7 160 493.7C186.7 494.7 213.3 492.3 240 485.3C266.7 478.3 293.3 466.7 320 466.8C346.7 467 373.3 479 400 480C426.7 481 453.3 471 480 470C506.7 469 533.3 477 560 482.8C586.7 488.7 613.3 492.3 640 490C666.7 487.7 693.3 479.3 720 476.3C746.7 473.3 773.3 475.7 800 476.8C826.7 478 853.3 478 880 474.7C906.7 471.3 933.3 464.7 946.7 461.3L960 458L960 541L946.7 541C933.3 541 906.7 541 880 541C853.3 541 826.7 541 800 541C773.3 541 746.7 541 720 541C693.3 541 666.7 541 640 541C613.3 541 586.7 541 560 541C533.3 541 506.7 541 480 541C453.3 541 426.7 541 400 541C373.3 541 346.7 541 320 541C293.3 541 266.7 541 240 541C213.3 541 186.7 541 160 541C133.3 541 106.7 541 80 541C53.3 541 26.7 541 13.3 541L0 541Z" fill="#4672af"></path><path d="M0 489L13.3 494.2C26.7 499.3 53.3 509.7 80 514.7C106.7 519.7 133.3 519.3 160 518.5C186.7 517.7 213.3 516.3 240 515.2C266.7 514 293.3 513 320 510.3C346.7 507.7 373.3 503.3 400 499.7C426.7 496 453.3 493 480 492.7C506.7 492.3 533.3 494.7 560 495C586.7 495.3 613.3 493.7 640 494C666.7 494.3 693.3 496.7 720 498.2C746.7 499.7 773.3 500.3 800 502.7C826.7 505 853.3 509 880 509.3C906.7 509.7 933.3 506.3 946.7 504.7L960 503L960 541L946.7 541C933.3 541 906.7 541 880 541C853.3 541 826.7 541 800 541C773.3 541 746.7 541 720 541C693.3 541 666.7 541 640 541C613.3 541 586.7 541 560 541C533.3 541 506.7 541 480 541C453.3 541 426.7 541 400 541C373.3 541 346.7 541 320 541C293.3 541 266.7 541 240 541C213.3 541 186.7 541 160 541C133.3 541 106.7 541 80 541C53.3 541 26.7 541 13.3 541L0 541Z" fill="#527ebd"></path></svg>