<svg id="visual" viewBox="0 0 900 600" width="900" height="600" xmlns="http://www.w3.org/2000/svg" xmlns:xlink="http://www.w3.org/1999/xlink" version="1.1"><rect x="0" y="0" width="900" height="600" fill="#ffffff"></rect><path d="M0 353L21.5 361.8C43 370.7 86 388.3 128.8 390C171.7 391.7 214.3 377.3 257.2 374C300 370.7 343 378.3 385.8 391.7C428.7 405 471.3 424 514.2 419.2C557 414.3 600 385.7 642.8 383.8C685.7 382 728.3 407 771.2 408.5C814 410 857 388 878.5 377L900 366L900 601L878.5 601C857 601 814 601 771.2 601C728.3 601 685.7 601 642.8 601C600 601 557 601 514.2 601C471.3 601 428.7 601 385.8 601C343 601 300 601 257.2 601C214.3 601 171.7 601 128.8 601C86 601 43 601 21.5 601L0 601Z" fill="#355486"></path><path d="M0 471L21.5 469.3C43 467.7 86 464.3 128.8 455C171.7 445.7 214.3 430.3 257.2 428.7C300 427 343 439 385.8 439.2C428.7 439.3 471.3 427.7 514.2 427.5C557 427.3 600 438.7 642.8 435.8C685.7 433 728.3 416 771.2 413.8C814 411.7 857 424.3 878.5 430.7L900 437L900 601L878.5 601C857 601 814 601 771.2 601C728.3 601 685.7 601 642.8 601C600 601 557 601 514.2 601C471.3 601 428.7 601 385.8 601C343 601 300 601 257.2 601C214.3 601 171.7 601 128.8 601C86 601 43 601 21.5 601L0 601Z" fill="#3b6595"></path><path d="M0 454L21.5 459.3C43 464.7 86 475.3 128.8 482.5C171.7 489.7 214.3 493.3 257.2 488.7C300 484 343 471 385.8 461.8C428.7 452.7 471.3 447.3 514.2 448.5C557 449.7 600 457.3 642.8 457.5C685.7 457.7 728.3 450.3 771.2 450.5C814 450.7 857 458.3 878.5 462.2L900 466L900 601L878.5 601C857 601 814 601 771.2 601C728.3 601 685.7 601 642.8 601C600 601 557 601 514.2 601C471.3 601 428.7 601 385.8 601C343 601 300 601 257.2 601C214.3 601 171.7 601 128.8 601C86 601 43 601 21.5 601L0 601Z" fill="#4376a4"></path><path d="M0 516L21.5 516.8C43 517.7 86 519.3 128.8 517.8C171.7 516.3 214.3 511.7 257.2 512C300 512.3 343 517.7 385.8 514.5C428.7 511.3 471.3 499.7 514.2 501C557 502.3 600 516.7 642.8 524.8C685.7 533 728.3 535 771.2 535.8C814 536.7 857 536.3 878.5 536.2L900 536L900 601L878.5 601C857 601 814 601 771.2 601C728.3 601 685.7 601 642.8 601C600 601 557 601 514.2 601C471.3 601 428.7 601 385.8 601C343 601 300 601 257.2 601C214.3 601 171.7 601 128.8 601C86 601 43 601 21.5 601L0 601Z" fill="#4c87b2"></path><path d="M0 565L21.5 558.8C43 552.7 86 540.3 128.8 540.8C171.7 541.3 214.3 554.7 257.2 556.2C300 557.7 343 547.3 385.8 540.8C428.7 534.3 471.3 531.7 514.2 533.5C557 535.3 600 541.7 642.8 541.8C685.7 542 728.3 536 771.2 534.8C814 533.7 857 537.3 878.5 539.2L900 541L900 601L878.5 601C857 601 814 601 771.2 601C728.3 601 685.7 601 642.8 601C600 601 557 601 514.2 601C471.3 601 428.7 601 385.8 601C343 601 300 601 257.2 601C214.3 601 171.7 601 128.8 601C86 601 43 601 21.5 601L0 601Z" fill="#5798c0"></path></svg>