<svg id="visual" viewBox="0 0 900 600" width="900" height="600" xmlns="http://www.w3.org/2000/svg" xmlns:xlink="http://www.w3.org/1999/xlink" version="1.1"><rect x="0" y="0" width="900" height="600" fill="#ffffff"></rect><path d="M0 438L12.5 435.7C25 433.3 50 428.7 75 425.7C100 422.7 125 421.3 150 428.3C175 435.3 200 450.7 225 451.7C250 452.7 275 439.3 300 432.5C325 425.7 350 425.3 375 431.7C400 438 425 451 450 450C475 449 500 434 525 433C550 432 575 445 600 452.5C625 460 650 462 675 460.8C700 459.7 725 455.3 750 456C775 456.7 800 462.3 825 458.3C850 454.3 875 440.7 887.5 433.8L900 427L900 601L887.5 601C875 601 850 601 825 601C800 601 775 601 750 601C725 601 700 601 675 601C650 601 625 601 600 601C575 601 550 601 525 601C500 601 475 601 450 601C425 601 400 601 375 601C350 601 325 601 300 601C275 601 250 601 225 601C200 601 175 601 150 601C125 601 100 601 75 601C50 601 25 601 12.5 601L0 601Z" fill="#215085"></path><path d="M0 494L12.5 493.8C25 493.7 50 493.3 75 483.5C100 473.7 125 454.3 150 449.8C175 445.3 200 455.7 225 460.5C250 465.3 275 464.7 300 464.3C325 464 350 464 375 459.8C400 455.7 425 447.3 450 451.3C475 455.3 500 471.7 525 473.2C550 474.7 575 461.3 600 454.2C625 447 650 446 675 452C700 458 725 471 750 479C775 487 800 490 825 487.5C850 485 875 477 887.5 473L900 469L900 601L887.5 601C875 601 850 601 825 601C800 601 775 601 750 601C725 601 700 601 675 601C650 601 625 601 600 601C575 601 550 601 525 601C500 601 475 601 450 601C425 601 400 601 375 601C350 601 325 601 300 601C275 601 250 601 225 601C200 601 175 601 150 601C125 601 100 601 75 601C50 601 25 601 12.5 601L0 601Z" fill="#2e5b93"></path><path d="M0 475L12.5 475C25 475 50 475 75 477.8C100 480.7 125 486.3 150 489.5C175 492.7 200 493.3 225 492.3C250 491.3 275 488.7 300 486.5C325 484.3 350 482.7 375 482.7C400 482.7 425 484.3 450 482.7C475 481 500 476 525 477C550 478 575 485 600 490.5C625 496 650 500 675 500.7C700 501.3 725 498.7 750 500.5C775 502.3 800 508.7 825 506C850 503.3 875 491.7 887.5 485.8L900 480L900 601L887.5 601C875 601 850 601 825 601C800 601 775 601 750 601C725 601 700 601 675 601C650 601 625 601 600 601C575 601 550 601 525 601C500 601 475 601 450 601C425 601 400 601 375 601C350 601 325 601 300 601C275 601 250 601 225 601C200 601 175 601 150 601C125 601 100 601 75 601C50 601 25 601 12.5 601L0 601Z" fill="#3a67a1"></path><path d="M0 532L12.5 528.2C25 524.3 50 516.7 75 517.5C100 518.3 125 527.7 150 527.7C175 527.7 200 518.3 225 521C250 523.7 275 538.3 300 543.5C325 548.7 350 544.3 375 537.3C400 530.3 425 520.7 450 518.5C475 516.3 500 521.7 525 520.8C550 520 575 513 600 513.8C625 514.7 650 523.3 675 527.2C700 531 725 530 750 525.8C775 521.7 800 514.3 825 518.3C850 522.3 875 537.7 887.5 545.3L900 553L900 601L887.5 601C875 601 850 601 825 601C800 601 775 601 750 601C725 601 700 601 675 601C650 601 625 601 600 601C575 601 550 601 525 601C500 601 475 601 450 601C425 601 400 601 375 601C350 601 325 601 300 601C275 601 250 601 225 601C200 601 175 601 150 601C125 601 100 601 75 601C50 601 25 601 12.5 601L0 601Z" fill="#4672af"></path><path d="M0 572L12.5 569.7C25 567.3 50 562.7 75 559.7C100 556.7 125 555.3 150 557.5C175 559.7 200 565.3 225 566.2C250 567 275 563 300 559C325 555 350 551 375 548.8C400 546.7 425 546.3 450 547.2C475 548 500 550 525 552.7C550 555.3 575 558.7 600 561.5C625 564.3 650 566.7 675 564C700 561.3 725 553.7 750 552.5C775 551.3 800 556.7 825 559.2C850 561.7 875 561.3 887.5 561.2L900 561L900 601L887.5 601C875 601 850 601 825 601C800 601 775 601 750 601C725 601 700 601 675 601C650 601 625 601 600 601C575 601 550 601 525 601C500 601 475 601 450 601C425 601 400 601 375 601C350 601 325 601 300 601C275 601 250 601 225 601C200 601 175 601 150 601C125 601 100 601 75 601C50 601 25 601 12.5 601L0 601Z" fill="#527ebd"></path></svg>