<svg id="visual" viewBox="0 0 960 540" width="960" height="540" xmlns="http://www.w3.org/2000/svg" xmlns:xlink="http://www.w3.org/1999/xlink" version="1.1"><rect x="0" y="0" width="960" height="540" fill="#ffffff"></rect><path d="M0 428L13.3 416.7C26.7 405.3 53.3 382.7 80 379.8C106.7 377 133.3 394 160 401.2C186.7 408.3 213.3 405.7 240 397.5C266.7 389.3 293.3 375.7 320 379.3C346.7 383 373.3 404 400 413.8C426.7 423.7 453.3 422.3 480 418.3C506.7 414.3 533.3 407.7 560 403.8C586.7 400 613.3 399 640 403.5C666.7 408 693.3 418 720 411.5C746.7 405 773.3 382 800 375C826.7 368 853.3 377 880 378.2C906.7 379.3 933.3 372.7 946.7 369.3L960 366L960 541L946.7 541C933.3 541 906.7 541 880 541C853.3 541 826.7 541 800 541C773.3 541 746.7 541 720 541C693.3 541 666.7 541 640 541C613.3 541 586.7 541 560 541C533.3 541 506.7 541 480 541C453.3 541 426.7 541 400 541C373.3 541 346.7 541 320 541C293.3 541 266.7 541 240 541C213.3 541 186.7 541 160 541C133.3 541 106.7 541 80 541C53.3 541 26.7 541 13.3 541L0 541Z" fill="#215085"></path><path d="M0 402L13.3 406.2C26.7 410.3 53.3 418.7 80 418.3C106.7 418 133.3 409 160 405.2C186.7 401.3 213.3 402.7 240 409C266.7 415.3 293.3 426.7 320 424.8C346.7 423 373.3 408 400 402.5C426.7 397 453.3 401 480 402.5C506.7 404 533.3 403 560 409.2C586.7 415.3 613.3 428.7 640 428.5C666.7 428.3 693.3 414.7 720 413.5C746.7 412.3 773.3 423.7 800 422.2C826.7 420.7 853.3 406.3 880 403.3C906.7 400.3 933.3 408.7 946.7 412.8L960 417L960 541L946.7 541C933.3 541 906.7 541 880 541C853.3 541 826.7 541 800 541C773.3 541 746.7 541 720 541C693.3 541 666.7 541 640 541C613.3 541 586.7 541 560 541C533.3 541 506.7 541 480 541C453.3 541 426.7 541 400 541C373.3 541 346.7 541 320 541C293.3 541 266.7 541 240 541C213.3 541 186.7 541 160 541C133.3 541 106.7 541 80 541C53.3 541 26.7 541 13.3 541L0 541Z" fill="#2e5b93"></path><path d="M0 439L13.3 437.2C26.7 435.3 53.3 431.7 80 436.2C106.7 440.7 133.3 453.3 160 453.7C186.7 454 213.3 442 240 441.5C266.7 441 293.3 452 320 457.8C346.7 463.7 373.3 464.3 400 459.7C426.7 455 453.3 445 480 443.5C506.7 442 533.3 449 560 454.7C586.7 460.3 613.3 464.7 640 463.8C666.7 463 693.3 457 720 452.3C746.7 447.7 773.3 444.3 800 440.3C826.7 436.3 853.3 431.7 880 432.5C906.7 433.3 933.3 439.7 946.7 442.8L960 446L960 541L946.7 541C933.3 541 906.7 541 880 541C853.3 541 826.7 541 800 541C773.3 541 746.7 541 720 541C693.3 541 666.7 541 640 541C613.3 541 586.7 541 560 541C533.3 541 506.7 541 480 541C453.3 541 426.7 541 400 541C373.3 541 346.7 541 320 541C293.3 541 266.7 541 240 541C213.3 541 186.7 541 160 541C133.3 541 106.7 541 80 541C53.3 541 26.7 541 13.3 541L0 541Z" fill="#3a67a1"></path><path d="M0 492L13.3 489.7C26.7 487.3 53.3 482.7 80 476.7C106.7 470.7 133.3 463.3 160 462.3C186.7 461.3 213.3 466.7 240 467.3C266.7 468 293.3 464 320 462.7C346.7 461.3 373.3 462.7 400 468C426.7 473.3 453.3 482.7 480 486.7C506.7 490.7 533.3 489.3 560 489.8C586.7 490.3 613.3 492.7 640 487.8C666.7 483 693.3 471 720 465.3C746.7 459.7 773.3 460.3 800 464.5C826.7 468.7 853.3 476.3 880 475.7C906.7 475 933.3 466 946.7 461.5L960 457L960 541L946.7 541C933.3 541 906.7 541 880 541C853.3 541 826.7 541 800 541C773.3 541 746.7 541 720 541C693.3 541 666.7 541 640 541C613.3 541 586.7 541 560 541C533.3 541 506.7 541 480 541C453.3 541 426.7 541 400 541C373.3 541 346.7 541 320 541C293.3 541 266.7 541 240 541C213.3 541 186.7 541 160 541C133.3 541 106.7 541 80 541C53.3 541 26.7 541 13.3 541L0 541Z" fill="#4672af"></path><path d="M0 519L13.3 518.7C26.7 518.3 53.3 517.7 80 514.8C106.7 512 133.3 507 160 505.7C186.7 504.3 213.3 506.7 240 506C266.7 505.3 293.3 501.7 320 501.7C346.7 501.7 373.3 505.3 400 505C426.7 504.7 453.3 500.3 480 497.2C506.7 494 533.3 492 560 493.7C586.7 495.3 613.3 500.7 640 502C666.7 503.3 693.3 500.7 720 502.8C746.7 505 773.3 512 800 511.8C826.7 511.7 853.3 504.3 880 499C906.7 493.7 933.3 490.3 946.7 488.7L960 487L960 541L946.7 541C933.3 541 906.7 541 880 541C853.3 541 826.7 541 800 541C773.3 541 746.7 541 720 541C693.3 541 666.7 541 640 541C613.3 541 586.7 541 560 541C533.3 541 506.7 541 480 541C453.3 541 426.7 541 400 541C373.3 541 346.7 541 320 541C293.3 541 266.7 541 240 541C213.3 541 186.7 541 160 541C133.3 541 106.7 541 80 541C53.3 541 26.7 541 13.3 541L0 541Z" fill="#527ebd"></path></svg>