<svg id="visual" viewBox="0 0 960 540" width="960" height="540" xmlns="http://www.w3.org/2000/svg" xmlns:xlink="http://www.w3.org/1999/xlink" version="1.1"><rect x="0" y="0" width="960" height="540" fill="#ffffff"></rect><path d="M0 409L13.3 409.3C26.7 409.7 53.3 410.3 80 404.8C106.7 399.3 133.3 387.7 160 379.7C186.7 371.7 213.3 367.3 240 372.7C266.7 378 293.3 393 320 396.7C346.7 400.3 373.3 392.7 400 386C426.7 379.3 453.3 373.7 480 379.5C506.7 385.3 533.3 402.7 560 405.8C586.7 409 613.3 398 640 388.8C666.7 379.7 693.3 372.3 720 368.3C746.7 364.3 773.3 363.7 800 373.3C826.7 383 853.3 403 880 403.5C906.7 404 933.3 385 946.7 375.5L960 366L960 541L946.7 541C933.3 541 906.7 541 880 541C853.3 541 826.7 541 800 541C773.3 541 746.7 541 720 541C693.3 541 666.7 541 640 541C613.3 541 586.7 541 560 541C533.3 541 506.7 541 480 541C453.3 541 426.7 541 400 541C373.3 541 346.7 541 320 541C293.3 541 266.7 541 240 541C213.3 541 186.7 541 160 541C133.3 541 106.7 541 80 541C53.3 541 26.7 541 13.3 541L0 541Z" fill="#215085"></path><path d="M0 402L13.3 408.5C26.7 415 53.3 428 80 436.3C106.7 444.7 133.3 448.3 160 445.3C186.7 442.3 213.3 432.7 240 427C266.7 421.3 293.3 419.7 320 423.7C346.7 427.7 373.3 437.3 400 443.2C426.7 449 453.3 451 480 447C506.7 443 533.3 433 560 425.2C586.7 417.3 613.3 411.7 640 407C666.7 402.3 693.3 398.7 720 398.2C746.7 397.7 773.3 400.3 800 406.8C826.7 413.3 853.3 423.7 880 430.8C906.7 438 933.3 442 946.7 444L960 446L960 541L946.7 541C933.3 541 906.7 541 880 541C853.3 541 826.7 541 800 541C773.3 541 746.7 541 720 541C693.3 541 666.7 541 640 541C613.3 541 586.7 541 560 541C533.3 541 506.7 541 480 541C453.3 541 426.7 541 400 541C373.3 541 346.7 541 320 541C293.3 541 266.7 541 240 541C213.3 541 186.7 541 160 541C133.3 541 106.7 541 80 541C53.3 541 26.7 541 13.3 541L0 541Z" fill="#2e5b93"></path><path d="M0 471L13.3 463.3C26.7 455.7 53.3 440.3 80 436.5C106.7 432.7 133.3 440.3 160 445.5C186.7 450.7 213.3 453.3 240 454.8C266.7 456.3 293.3 456.7 320 455.8C346.7 455 373.3 453 400 448.2C426.7 443.3 453.3 435.7 480 437.3C506.7 439 533.3 450 560 453C586.7 456 613.3 451 640 453.3C666.7 455.7 693.3 465.3 720 468C746.7 470.7 773.3 466.3 800 465.5C826.7 464.7 853.3 467.3 880 461.8C906.7 456.3 933.3 442.7 946.7 435.8L960 429L960 541L946.7 541C933.3 541 906.7 541 880 541C853.3 541 826.7 541 800 541C773.3 541 746.7 541 720 541C693.3 541 666.7 541 640 541C613.3 541 586.7 541 560 541C533.3 541 506.7 541 480 541C453.3 541 426.7 541 400 541C373.3 541 346.7 541 320 541C293.3 541 266.7 541 240 541C213.3 541 186.7 541 160 541C133.3 541 106.7 541 80 541C53.3 541 26.7 541 13.3 541L0 541Z" fill="#3a67a1"></path><path d="M0 493L13.3 492.7C26.7 492.3 53.3 491.7 80 490.5C106.7 489.3 133.3 487.7 160 483.7C186.7 479.7 213.3 473.3 240 469.3C266.7 465.3 293.3 463.7 320 461.5C346.7 459.3 373.3 456.7 400 456.2C426.7 455.7 453.3 457.3 480 459.3C506.7 461.3 533.3 463.7 560 466.2C586.7 468.7 613.3 471.3 640 475.2C666.7 479 693.3 484 720 482C746.7 480 773.3 471 800 467.2C826.7 463.3 853.3 464.7 880 464.7C906.7 464.7 933.3 463.3 946.7 462.7L960 462L960 541L946.7 541C933.3 541 906.7 541 880 541C853.3 541 826.7 541 800 541C773.3 541 746.7 541 720 541C693.3 541 666.7 541 640 541C613.3 541 586.7 541 560 541C533.3 541 506.7 541 480 541C453.3 541 426.7 541 400 541C373.3 541 346.7 541 320 541C293.3 541 266.7 541 240 541C213.3 541 186.7 541 160 541C133.3 541 106.7 541 80 541C53.3 541 26.7 541 13.3 541L0 541Z" fill="#4672af"></path><path d="M0 503L13.3 501.2C26.7 499.3 53.3 495.7 80 497.5C106.7 499.3 133.3 506.7 160 510.8C186.7 515 213.3 516 240 514.8C266.7 513.7 293.3 510.3 320 507.8C346.7 505.3 373.3 503.7 400 501.3C426.7 499 453.3 496 480 498.2C506.7 500.3 533.3 507.7 560 510.5C586.7 513.3 613.3 511.7 640 507.7C666.7 503.7 693.3 497.3 720 497.2C746.7 497 773.3 503 800 506C826.7 509 853.3 509 880 510C906.7 511 933.3 513 946.7 514L960 515L960 541L946.7 541C933.3 541 906.7 541 880 541C853.3 541 826.7 541 800 541C773.3 541 746.7 541 720 541C693.3 541 666.7 541 640 541C613.3 541 586.7 541 560 541C533.3 541 506.7 541 480 541C453.3 541 426.7 541 400 541C373.3 541 346.7 541 320 541C293.3 541 266.7 541 240 541C213.3 541 186.7 541 160 541C133.3 541 106.7 541 80 541C53.3 541 26.7 541 13.3 541L0 541Z" fill="#527ebd"></path></svg>