<svg id="visual" viewBox="0 0 900 600" width="900" height="600" xmlns="http://www.w3.org/2000/svg" xmlns:xlink="http://www.w3.org/1999/xlink" version="1.1"><rect x="0" y="0" width="900" height="600" fill="#ffffff"></rect><path d="M0 425L12.5 430.5C25 436 50 447 75 452.5C100 458 125 458 150 448.7C175 439.3 200 420.7 225 413C250 405.3 275 408.7 300 421.2C325 433.7 350 455.3 375 458.3C400 461.3 425 445.7 450 440.3C475 435 500 440 525 445.2C550 450.3 575 455.7 600 448.8C625 442 650 423 675 417.2C700 411.3 725 418.7 750 429.5C775 440.3 800 454.7 825 463.2C850 471.7 875 474.3 887.5 475.7L900 477L900 601L887.5 601C875 601 850 601 825 601C800 601 775 601 750 601C725 601 700 601 675 601C650 601 625 601 600 601C575 601 550 601 525 601C500 601 475 601 450 601C425 601 400 601 375 601C350 601 325 601 300 601C275 601 250 601 225 601C200 601 175 601 150 601C125 601 100 601 75 601C50 601 25 601 12.5 601L0 601Z" fill="#215085"></path><path d="M0 468L12.5 465.5C25 463 50 458 75 460C100 462 125 471 150 474C175 477 200 474 225 472.5C250 471 275 471 300 472.2C325 473.3 350 475.7 375 471C400 466.3 425 454.7 450 455.5C475 456.3 500 469.7 525 468.3C550 467 575 451 600 449.2C625 447.3 650 459.7 675 469.7C700 479.7 725 487.3 750 491.2C775 495 800 495 825 495.2C850 495.3 875 495.7 887.5 495.8L900 496L900 601L887.5 601C875 601 850 601 825 601C800 601 775 601 750 601C725 601 700 601 675 601C650 601 625 601 600 601C575 601 550 601 525 601C500 601 475 601 450 601C425 601 400 601 375 601C350 601 325 601 300 601C275 601 250 601 225 601C200 601 175 601 150 601C125 601 100 601 75 601C50 601 25 601 12.5 601L0 601Z" fill="#2e5b93"></path><path d="M0 514L12.5 510C25 506 50 498 75 491.5C100 485 125 480 150 482.3C175 484.7 200 494.3 225 498.7C250 503 275 502 300 500.7C325 499.3 350 497.7 375 500.8C400 504 425 512 450 514.5C475 517 500 514 525 512.7C550 511.3 575 511.7 600 510.5C625 509.3 650 506.7 675 503.2C700 499.7 725 495.3 750 491.8C775 488.3 800 485.7 825 485.2C850 484.7 875 486.3 887.5 487.2L900 488L900 601L887.5 601C875 601 850 601 825 601C800 601 775 601 750 601C725 601 700 601 675 601C650 601 625 601 600 601C575 601 550 601 525 601C500 601 475 601 450 601C425 601 400 601 375 601C350 601 325 601 300 601C275 601 250 601 225 601C200 601 175 601 150 601C125 601 100 601 75 601C50 601 25 601 12.5 601L0 601Z" fill="#3a67a1"></path><path d="M0 533L12.5 530.7C25 528.3 50 523.7 75 526C100 528.3 125 537.7 150 540.2C175 542.7 200 538.3 225 536.7C250 535 275 536 300 536.3C325 536.7 350 536.3 375 532.7C400 529 425 522 450 520.3C475 518.7 500 522.3 525 528.2C550 534 575 542 600 542.7C625 543.3 650 536.7 675 536.2C700 535.7 725 541.3 750 538.8C775 536.3 800 525.7 825 524.2C850 522.7 875 530.3 887.5 534.2L900 538L900 601L887.5 601C875 601 850 601 825 601C800 601 775 601 750 601C725 601 700 601 675 601C650 601 625 601 600 601C575 601 550 601 525 601C500 601 475 601 450 601C425 601 400 601 375 601C350 601 325 601 300 601C275 601 250 601 225 601C200 601 175 601 150 601C125 601 100 601 75 601C50 601 25 601 12.5 601L0 601Z" fill="#4672af"></path><path d="M0 557L12.5 554.3C25 551.7 50 546.3 75 547.8C100 549.3 125 557.7 150 562.8C175 568 200 570 225 566.7C250 563.3 275 554.7 300 552.8C325 551 350 556 375 558C400 560 425 559 450 560.5C475 562 500 566 525 563.5C550 561 575 552 600 548.3C625 544.7 650 546.3 675 550.5C700 554.7 725 561.3 750 564C775 566.7 800 565.3 825 561.3C850 557.3 875 550.7 887.5 547.3L900 544L900 601L887.5 601C875 601 850 601 825 601C800 601 775 601 750 601C725 601 700 601 675 601C650 601 625 601 600 601C575 601 550 601 525 601C500 601 475 601 450 601C425 601 400 601 375 601C350 601 325 601 300 601C275 601 250 601 225 601C200 601 175 601 150 601C125 601 100 601 75 601C50 601 25 601 12.5 601L0 601Z" fill="#527ebd"></path></svg>