<svg id="visual" viewBox="0 0 900 600" width="900" height="600" xmlns="http://www.w3.org/2000/svg" xmlns:xlink="http://www.w3.org/1999/xlink" version="1.1"><rect x="0" y="0" width="900" height="600" fill="#ffffff"></rect><path d="M0 461L12.5 454.5C25 448 50 435 75 436C100 437 125 452 150 450.8C175 449.7 200 432.3 225 427.8C250 423.3 275 431.7 300 441C325 450.3 350 460.7 375 454.8C400 449 425 427 450 424.3C475 421.7 500 438.3 525 447.3C550 456.3 575 457.7 600 448.7C625 439.7 650 420.3 675 411C700 401.7 725 402.3 750 403.3C775 404.3 800 405.7 825 417.7C850 429.7 875 452.3 887.5 463.7L900 475L900 601L887.5 601C875 601 850 601 825 601C800 601 775 601 750 601C725 601 700 601 675 601C650 601 625 601 600 601C575 601 550 601 525 601C500 601 475 601 450 601C425 601 400 601 375 601C350 601 325 601 300 601C275 601 250 601 225 601C200 601 175 601 150 601C125 601 100 601 75 601C50 601 25 601 12.5 601L0 601Z" fill="#215085"></path><path d="M0 454L12.5 457C25 460 50 466 75 463.8C100 461.7 125 451.3 150 451.5C175 451.7 200 462.3 225 469C250 475.7 275 478.3 300 477.3C325 476.3 350 471.7 375 465.2C400 458.7 425 450.3 450 449.3C475 448.3 500 454.7 525 453.8C550 453 575 445 600 447.2C625 449.3 650 461.7 675 468C700 474.3 725 474.7 750 469.3C775 464 800 453 825 447.7C850 442.3 875 442.7 887.5 442.8L900 443L900 601L887.5 601C875 601 850 601 825 601C800 601 775 601 750 601C725 601 700 601 675 601C650 601 625 601 600 601C575 601 550 601 525 601C500 601 475 601 450 601C425 601 400 601 375 601C350 601 325 601 300 601C275 601 250 601 225 601C200 601 175 601 150 601C125 601 100 601 75 601C50 601 25 601 12.5 601L0 601Z" fill="#2e5b93"></path><path d="M0 498L12.5 498.3C25 498.7 50 499.3 75 499.2C100 499 125 498 150 502C175 506 200 515 225 510.3C250 505.7 275 487.3 300 480.8C325 474.3 350 479.7 375 486.5C400 493.3 425 501.7 450 508C475 514.3 500 518.7 525 520.3C550 522 575 521 600 514.2C625 507.3 650 494.7 675 489.2C700 483.7 725 485.3 750 487.3C775 489.3 800 491.7 825 496.3C850 501 875 508 887.5 511.5L900 515L900 601L887.5 601C875 601 850 601 825 601C800 601 775 601 750 601C725 601 700 601 675 601C650 601 625 601 600 601C575 601 550 601 525 601C500 601 475 601 450 601C425 601 400 601 375 601C350 601 325 601 300 601C275 601 250 601 225 601C200 601 175 601 150 601C125 601 100 601 75 601C50 601 25 601 12.5 601L0 601Z" fill="#3a67a1"></path><path d="M0 552L12.5 548.3C25 544.7 50 537.3 75 532.2C100 527 125 524 150 525.2C175 526.3 200 531.7 225 535.5C250 539.3 275 541.7 300 538.3C325 535 350 526 375 527.3C400 528.7 425 540.3 450 545.5C475 550.7 500 549.3 525 542.7C550 536 575 524 600 521.8C625 519.7 650 527.3 675 533.7C700 540 725 545 750 545.7C775 546.3 800 542.7 825 541.8C850 541 875 543 887.5 544L900 545L900 601L887.5 601C875 601 850 601 825 601C800 601 775 601 750 601C725 601 700 601 675 601C650 601 625 601 600 601C575 601 550 601 525 601C500 601 475 601 450 601C425 601 400 601 375 601C350 601 325 601 300 601C275 601 250 601 225 601C200 601 175 601 150 601C125 601 100 601 75 601C50 601 25 601 12.5 601L0 601Z" fill="#4672af"></path><path d="M0 579L12.5 574.7C25 570.3 50 561.7 75 560.2C100 558.7 125 564.3 150 566C175 567.7 200 565.3 225 560.2C250 555 275 547 300 544.3C325 541.7 350 544.3 375 547C400 549.7 425 552.3 450 553.2C475 554 500 553 525 555.2C550 557.3 575 562.7 600 562.7C625 562.7 650 557.3 675 555.2C700 553 725 554 750 555.5C775 557 800 559 825 557.3C850 555.7 875 550.3 887.5 547.7L900 545L900 601L887.5 601C875 601 850 601 825 601C800 601 775 601 750 601C725 601 700 601 675 601C650 601 625 601 600 601C575 601 550 601 525 601C500 601 475 601 450 601C425 601 400 601 375 601C350 601 325 601 300 601C275 601 250 601 225 601C200 601 175 601 150 601C125 601 100 601 75 601C50 601 25 601 12.5 601L0 601Z" fill="#527ebd"></path></svg>