<svg id="visual" viewBox="0 0 960 540" width="960" height="540" xmlns="http://www.w3.org/2000/svg" xmlns:xlink="http://www.w3.org/1999/xlink" version="1.1"><rect x="0" y="0" width="960" height="540" fill="#ffffff"></rect><path d="M0 397L13.3 392.2C26.7 387.3 53.3 377.7 80 381C106.7 384.3 133.3 400.7 160 400.2C186.7 399.7 213.3 382.3 240 378.5C266.7 374.7 293.3 384.3 320 392.7C346.7 401 373.3 408 400 411.5C426.7 415 453.3 415 480 417C506.7 419 533.3 423 560 422.7C586.7 422.3 613.3 417.7 640 414.5C666.7 411.3 693.3 409.7 720 401.2C746.7 392.7 773.3 377.3 800 376.8C826.7 376.3 853.3 390.7 880 399.2C906.7 407.7 933.3 410.3 946.7 411.7L960 413L960 541L946.7 541C933.3 541 906.7 541 880 541C853.3 541 826.7 541 800 541C773.3 541 746.7 541 720 541C693.3 541 666.7 541 640 541C613.3 541 586.7 541 560 541C533.3 541 506.7 541 480 541C453.3 541 426.7 541 400 541C373.3 541 346.7 541 320 541C293.3 541 266.7 541 240 541C213.3 541 186.7 541 160 541C133.3 541 106.7 541 80 541C53.3 541 26.7 541 13.3 541L0 541Z" fill="#215085"></path><path d="M0 433L13.3 431.7C26.7 430.3 53.3 427.7 80 428.8C106.7 430 133.3 435 160 438.5C186.7 442 213.3 444 240 446.2C266.7 448.3 293.3 450.7 320 442.2C346.7 433.7 373.3 414.3 400 404C426.7 393.7 453.3 392.3 480 395C506.7 397.7 533.3 404.3 560 408.7C586.7 413 613.3 415 640 417.5C666.7 420 693.3 423 720 423.2C746.7 423.3 773.3 420.7 800 423.7C826.7 426.7 853.3 435.3 880 440.3C906.7 445.3 933.3 446.7 946.7 447.3L960 448L960 541L946.7 541C933.3 541 906.7 541 880 541C853.3 541 826.7 541 800 541C773.3 541 746.7 541 720 541C693.3 541 666.7 541 640 541C613.3 541 586.7 541 560 541C533.3 541 506.7 541 480 541C453.3 541 426.7 541 400 541C373.3 541 346.7 541 320 541C293.3 541 266.7 541 240 541C213.3 541 186.7 541 160 541C133.3 541 106.7 541 80 541C53.3 541 26.7 541 13.3 541L0 541Z" fill="#2e5b93"></path><path d="M0 457L13.3 454C26.7 451 53.3 445 80 439.2C106.7 433.3 133.3 427.7 160 428C186.7 428.3 213.3 434.7 240 441.8C266.7 449 293.3 457 320 454.3C346.7 451.7 373.3 438.3 400 434.3C426.7 430.3 453.3 435.7 480 436.5C506.7 437.3 533.3 433.7 560 438C586.7 442.3 613.3 454.7 640 455.7C666.7 456.7 693.3 446.3 720 447.7C746.7 449 773.3 462 800 462.5C826.7 463 853.3 451 880 445.3C906.7 439.7 933.3 440.3 946.7 440.7L960 441L960 541L946.7 541C933.3 541 906.7 541 880 541C853.3 541 826.7 541 800 541C773.3 541 746.7 541 720 541C693.3 541 666.7 541 640 541C613.3 541 586.7 541 560 541C533.3 541 506.7 541 480 541C453.3 541 426.7 541 400 541C373.3 541 346.7 541 320 541C293.3 541 266.7 541 240 541C213.3 541 186.7 541 160 541C133.3 541 106.7 541 80 541C53.3 541 26.7 541 13.3 541L0 541Z" fill="#3a67a1"></path><path d="M0 464L13.3 465C26.7 466 53.3 468 80 473C106.7 478 133.3 486 160 488.2C186.7 490.3 213.3 486.7 240 480C266.7 473.3 293.3 463.7 320 463.5C346.7 463.3 373.3 472.7 400 478.3C426.7 484 453.3 486 480 485C506.7 484 533.3 480 560 475.2C586.7 470.3 613.3 464.7 640 467.7C666.7 470.7 693.3 482.3 720 487.5C746.7 492.7 773.3 491.3 800 484.7C826.7 478 853.3 466 880 461.7C906.7 457.3 933.3 460.7 946.7 462.3L960 464L960 541L946.7 541C933.3 541 906.7 541 880 541C853.3 541 826.7 541 800 541C773.3 541 746.7 541 720 541C693.3 541 666.7 541 640 541C613.3 541 586.7 541 560 541C533.3 541 506.7 541 480 541C453.3 541 426.7 541 400 541C373.3 541 346.7 541 320 541C293.3 541 266.7 541 240 541C213.3 541 186.7 541 160 541C133.3 541 106.7 541 80 541C53.3 541 26.7 541 13.3 541L0 541Z" fill="#4672af"></path><path d="M0 511L13.3 509.7C26.7 508.3 53.3 505.7 80 501.7C106.7 497.7 133.3 492.3 160 490C186.7 487.7 213.3 488.3 240 490.2C266.7 492 293.3 495 320 499.3C346.7 503.7 373.3 509.3 400 509.7C426.7 510 453.3 505 480 500.2C506.7 495.3 533.3 490.7 560 493.3C586.7 496 613.3 506 640 508C666.7 510 693.3 504 720 504.2C746.7 504.3 773.3 510.7 800 513.2C826.7 515.7 853.3 514.3 880 514.5C906.7 514.7 933.3 516.3 946.7 517.2L960 518L960 541L946.7 541C933.3 541 906.7 541 880 541C853.3 541 826.7 541 800 541C773.3 541 746.7 541 720 541C693.3 541 666.7 541 640 541C613.3 541 586.7 541 560 541C533.3 541 506.7 541 480 541C453.3 541 426.7 541 400 541C373.3 541 346.7 541 320 541C293.3 541 266.7 541 240 541C213.3 541 186.7 541 160 541C133.3 541 106.7 541 80 541C53.3 541 26.7 541 13.3 541L0 541Z" fill="#527ebd"></path></svg>